<?xml version="1.0" encoding="utf-8"?>
<svg version="1.1" xmlns="http://www.w3.org/2000/svg" xmlns:xlink="http://www.w3.org/1999/xlink" x="0px" y="0px"
	 viewBox="0 0 394 512" style="enable-background:new 0 0 394 512;" xml:space="preserve">
<style type="text/css">
	.st0{fill:#BB0000;}
	.st1{opacity:0.35;}
	.st2{fill:url(#SVGID_1_);}
	.st3{fill:url(#SVGID_00000126308112663966335960000005403684357366464158_);}
</style>
<g>
	<path class="st0" d="M342.5,188.5c16.7,18,29.4,38.4,38,61.1c8.6,22.7,13,45.7,13.2,69.1c0.2,23.4-3.9,46.4-12.5,69.1
		c-8.6,22.7-21.5,43.3-38.7,61.8c-18.1,19.4-38.8,34.4-62,44.8c-23.2,10.4-47.3,16.2-72.1,17.4c-24.9,1.2-49.4-2.4-73.5-10.8
		s-46-21.5-65.5-39.6L59,451.5c-9.3-8.3-16.4-18-21.2-29.1s-7.6-22.3-8-33.7c-0.5-11.3,1.3-22.7,5.2-34
		c3.9-11.4,10.1-21.6,18.5-30.9c-16.7-18.5-29.4-39-38-61.4C6.8,240,2.5,216.9,2.5,193.3c0-23.6,4.2-46.7,12.6-69.4
		c8.4-22.7,21.3-43.3,39-61.8c18.1-19.4,38.8-34.4,62-44.8c23.2-10.4,47.1-16.1,71.8-17c24.6-0.9,49,2.7,73.1,10.8
		c24.2,8.1,46,21.2,65.5,39.2l10.5,9.7c9.3,8.3,16.4,18,21.3,29.1c4.9,11.1,7.5,22.5,8,34c0.5,11.6-1.3,23-5.2,34.3
		C357,168.9,350.9,179.2,342.5,188.5z"/>
	<g>
		<g id="Shadow_bottom_00000169553075295919942990000006388194736144300436_">
			<path class="st1" d="M103.3,254.8l-0.8-0.5l1.3,24.7c0.3-0.1,0.5-0.2,0.8-0.3L103.3,254.8z"/>
			<path class="st1" d="M111.5,407.9l-2-37.7c-35.5,13.5-66.1,44.2-77.7,83.3l-2.1-2c-9.3-8.3-16.4-18-21.2-29.1
				c-4.3-9.8-6.9-19.7-7.8-29.6c-0.3,3.7-0.4,7.3-0.3,11c0.5,11.4,3.1,22.6,8,33.7c4.9,11.1,11.9,20.8,21.2,29.1l2.1,2
				c11.6-39.1,42.2-69.8,77.7-83.3l2,37.7l130.6-91.4l-12-6.6L111.5,407.9z"/>
		</g>
		<g id="Arrow_bottom_00000075122959083758069990000000794272254956518841_">
			<linearGradient id="SVGID_1_" gradientUnits="userSpaceOnUse" x1="0.2864" y1="346.3986" x2="242.099" y2="346.3986">
				<stop  offset="0" style="stop-color:#FFF23A"/>
				<stop  offset="1" style="stop-color:#FFDC22"/>
			</linearGradient>
			<path class="st2" d="M0.3,388.7c0.5,11.4,3.1,22.6,8,33.7s11.9,20.8,21.2,29.1l2.1,2c11.6-39.1,42.2-69.8,77.7-83.3l2,37.7
				l130.6-91.4l-139.6-77.2l2.1,39.5c-36.6,12-55.1,21-73.8,38.5S8.6,346.1,5.6,354.7C2.5,363.3-0.1,377.4,0.3,388.7z"/>
		</g>
	</g>
	<g id="Shadow_top_00000169535773219540283090000002473294570432379269_">
		<polygon class="st1" points="128.6,220.1 268.1,297.3 267.3,281.8 140.6,211.7 		"/>
		<path class="st1" d="M381.2,133.6c-0.1-1.4-0.1-2.7-0.3-4.1c-0.6,7.8-2.3,15.6-5,23.4c-1.7,5-3.9,9.8-6.5,14.3
			c-25.2,34.4-61.2,61.7-103.5,75.6l0.8,14.8c41.9-13.9,77.6-41.1,102.7-75.3c2.6-4.6,4.8-9.4,6.5-14.3
			C380,156.6,381.7,145.1,381.2,133.6z"/>
	</g>
	<g id="Arrow_top_00000024003317097693700830000013960595403910532008_">

			<linearGradient id="SVGID_00000025431608590680769310000009185655096394360752_" gradientUnits="userSpaceOnUse" x1="128.5544" y1="164.8238" x2="381.317" y2="164.8238">
			<stop  offset="0" style="stop-color:#FFF23A"/>
			<stop  offset="1" style="stop-color:#FFDC22"/>
		</linearGradient>
		<path style="fill:url(#SVGID_00000025431608590680769310000009185655096394360752_);" d="M261.2,151.3l-2-37.7L128.6,205
			l139.6,77.2l-2.1-39.5c42.2-13.8,78.2-41.2,103.5-75.6c2.6-4.6,4.8-9.4,6.5-14.3c3.9-11.3,5.7-22.8,5.2-34.3
			c-0.5-11.6-3.1-22.9-8-34c-4.9-11.1-12-20.8-21.3-29.1l-8.5-7.9c-0.6,4.4-1.5,8.7-2.6,13C331.2,103.1,299,136.9,261.2,151.3z"/>
	</g>
</g>
</svg>
